<svg width="0" height="0" class="hidden"><symbol xmlns="http://www.w3.org/2000/svg" viewBox="0 0 35 35" id="facebook"><path d="M34.453 17.875C34.453 8.51 26.865.922 17.5.922 8.135.922.547 8.51.547 17.875c0 8.477 6.152 15.518 14.287 16.748V22.797h-4.307v-4.922h4.307v-3.691c0-4.239 2.53-6.631 6.357-6.631 1.915 0 3.829.342 3.829.342v4.17H22.9c-2.119 0-2.802 1.298-2.802 2.665v3.145h4.716l-.752 4.922h-3.964v11.826c8.134-1.23 14.355-8.271 14.355-16.748Z"/></symbol><symbol xmlns="http://www.w3.org/2000/svg" viewBox="0 0 31 31" id="LinkedIn"><path d="M7.023 31V10.56H.666V31h6.357ZM3.811 7.826c2.05 0 3.691-1.709 3.691-3.76 0-1.982-1.64-3.623-3.691-3.623C1.828.443.188 2.084.188 4.066c0 2.051 1.64 3.76 3.623 3.76ZM30.744 31h.069V19.79c0-5.47-1.231-9.708-7.657-9.708-3.076 0-5.127 1.709-6.015 3.281h-.069V10.56h-6.084V31h6.358V20.883c0-2.666.478-5.195 3.76-5.195 3.28 0 3.35 3.007 3.35 5.4V31h6.288Z"/></symbol><symbol xmlns="http://www.w3.org/2000/svg" viewBox="0 0 40 31" id="logo"><path d="M37.002.19c-3.74.214-11.172.987-15.76 3.801-.318.194-.497.54-.497.9v24.874c0 .79.862 1.289 1.589.922 4.72-2.38 11.548-3.03 14.924-3.207 1.153-.06 2.049-.986 2.049-2.096V2.29c0-1.211-1.047-2.17-2.305-2.1ZM18.066 3.992C13.478 1.177 6.045.404 2.306.191 1.047.12 0 1.079 0 2.29v23.095c0 1.11.896 2.035 2.049 2.096 3.377.177 10.208.827 14.93 3.21.724.365 1.583-.133 1.583-.921V4.879a1.03 1.03 0 0 0-.496-.888Z" fill="#28A745"/></symbol><symbol xmlns="http://www.w3.org/2000/svg" viewBox="0 0 35 30" id="twitter"><path d="M31.377 7.766c1.367-1.026 2.598-2.256 3.555-3.692-1.23.547-2.666.957-4.102 1.094 1.504-.889 2.598-2.256 3.145-3.965a15.16 15.16 0 0 1-4.512 1.777A7.178 7.178 0 0 0 24.199.725a7.177 7.177 0 0 0-7.178 7.177c0 .547.069 1.094.206 1.641a20.825 20.825 0 0 1-14.834-7.52c-.616 1.026-.957 2.256-.957 3.623 0 2.461 1.23 4.649 3.212 5.948-1.162-.069-2.324-.342-3.28-.889v.068c0 3.487 2.46 6.358 5.741 7.041-.546.137-1.23.274-1.845.274-.479 0-.889-.069-1.368-.137.89 2.871 3.555 4.922 6.7 4.99-2.461 1.915-5.537 3.077-8.887 3.077-.615 0-1.162-.069-1.709-.137 3.145 2.05 6.904 3.213 11.006 3.213 13.193 0 20.371-10.87 20.371-20.371v-.957Z"/></symbol><symbol xmlns="http://www.w3.org/2000/svg" viewBox="0 0 38 27" id="YouTube"><path d="M36.842 4.92c-.41-1.64-1.71-2.94-3.282-3.35C30.621.75 19 .75 19 .75s-11.69 0-14.629.82C2.8 1.98 1.5 3.28 1.09 4.92.27 7.79.27 13.943.27 13.943s0 6.084.82 9.024c.41 1.64 1.709 2.87 3.281 3.281C7.311 27 19 27 19 27s11.621 0 14.56-.752c1.573-.41 2.872-1.64 3.282-3.281.82-2.94.82-9.024.82-9.024s0-6.152-.82-9.023Zm-21.67 14.56V8.406l9.707 5.537-9.707 5.537Z"/></symbol><symbol xmlns="http://www.w3.org/2000/svg" viewBox="0 0 9 13" id="arrow-right"><path d="m7.886 7.098-4.782 4.78a.84.84 0 0 1-1.192 0l-.794-.794a.84.84 0 0 1 0-1.191l3.389-3.39-3.389-3.389a.84.84 0 0 1 0-1.191l.791-.802a.84.84 0 0 1 1.192 0l4.781 4.781c.334.33.334.865.004 1.196Z"/></symbol><symbol xmlns="http://www.w3.org/2000/svg" viewBox="0 0 16 15" id="warning"><path d="M13 11.04c0 .312-.107.55-.321.714a1.258 1.258 0 0 1-.789.246H1.11c-.312 0-.575-.084-.789-.252C.107 11.58 0 11.344 0 11.04c0-.24.07-.484.21-.732L5.595.66c.257-.44.56-.66.91-.66.351 0 .647.22.889.66l5.396 9.66c.14.256.21.496.21.72ZM7.312 4.908V3.156H5.688v1.752c0 .112.008.218.024.318.015.1.037.212.064.336.027.124.048.23.064.318l.304 1.944h.689l.315-1.944a7.18 7.18 0 0 1 .07-.312c.031-.128.055-.242.07-.342.016-.1.024-.206.024-.318Zm0 4.644a.8.8 0 0 0-.24-.588.787.787 0 0 0-.578-.24.774.774 0 0 0-.566.24.8.8 0 0 0-.24.588c0 .232.08.43.24.594.16.164.348.246.566.246a.777.777 0 0 0 .578-.246.82.82 0 0 0 .24-.594Z"/></symbol><symbol xmlns="http://www.w3.org/2000/svg" id="left-arrow" viewBox="0 0 32 32"><path d="M27 14H9.83l6.58-6.59a2 2 0 0 0-2.82-2.82l-10 10a1.79 1.79 0 0 0-.25.31 1.19 1.19 0 0 0-.09.15l-.1.2-.06.2a.84.84 0 0 0 0 .17 2 2 0 0 0 0 .78.84.84 0 0 0 0 .17l.06.2c0 .07.07.13.1.2a1.19 1.19 0 0 0 .09.15 1.79 1.79 0 0 0 .25.31l10 10a2 2 0 0 0 2.82-2.82L9.83 18H27a2 2 0 0 0 0-4Z"/></symbol></svg>